<svg class="icon-account" width="24" height="25" viewBox="0 0 24 25" fill="none" xmlns="http://www.w3.org/2000/svg">
  <path d="M22.6673 23.0726V24.0726H23.6673V23.0726H22.6673ZM1.33398 23.0726H0.333984V24.0726H1.33398V23.0726ZM12.0007 13.4059C15.4996 13.4059 18.334 10.5715 18.334 7.07259H16.334C16.334 9.46697 14.395 11.4059 12.0007 11.4059V13.4059ZM5.66732 7.07259C5.66732 10.5715 8.5017 13.4059 12.0007 13.4059V11.4059C9.60627 11.4059 7.66732 9.46697 7.66732 7.07259H5.66732ZM12.0007 0.739258C8.5017 0.739258 5.66732 3.57364 5.66732 7.07259H7.66732C7.66732 4.67821 9.60627 2.73926 12.0007 2.73926V0.739258ZM18.334 7.07259C18.334 3.57364 15.4996 0.739258 12.0007 0.739258V2.73926C14.395 2.73926 16.334 4.67821 16.334 7.07259H18.334ZM12.0007 14.0726C10.0956 14.0726 7.30256 14.5427 4.96045 15.481C3.78858 15.9504 2.66673 16.5617 1.8218 17.3415C0.970078 18.1276 0.333984 19.152 0.333984 20.4059H2.33398C2.33398 19.8865 2.58622 19.3576 3.17825 18.8112C3.77708 18.2585 4.65439 17.7581 5.70419 17.3375C7.8054 16.4958 10.3457 16.0726 12.0007 16.0726V14.0726ZM23.6673 20.4059C23.6673 19.152 23.0312 18.1276 22.1795 17.3415C21.3346 16.5617 20.2127 15.9504 19.0409 15.481C16.6987 14.5427 13.9057 14.0726 12.0007 14.0726V16.0726C13.6556 16.0726 16.1959 16.4958 18.2971 17.3375C19.3469 17.7581 20.2242 18.2585 20.823 18.8112C21.4151 19.3576 21.6673 19.8865 21.6673 20.4059H23.6673ZM23.6673 23.0726V20.4059H21.6673V23.0726H23.6673ZM1.33398 24.0726H22.6673V22.0726H1.33398V24.0726ZM0.333984 20.4059V23.0726H2.33398V20.4059H0.333984Z" fill="#222222"/>
</svg>