<svg class="icon-search" width="23" height="23" viewBox="0 0 23 23" fill="none" xmlns="http://www.w3.org/2000/svg">
  <path fill-rule="evenodd" clip-rule="evenodd" d="M2 10.3723C2 6.02456 5.52456 2.5 9.87232 2.5C14.2201 2.5 17.7446 6.02456 17.7446 10.3723C17.7446 14.7201 14.2201 18.2446 9.87232 18.2446C5.52456 18.2446 2 14.7201 2 10.3723ZM9.87232 0.5C4.41999 0.5 0 4.91999 0 10.3723C0 15.8247 4.41999 20.2446 9.87232 20.2446C12.2381 20.2446 14.4096 19.4125 16.1099 18.0249L20.5719 22.4868C20.9624 22.8774 21.5956 22.8774 21.9861 22.4868C22.3766 22.0963 22.3766 21.4632 21.9861 21.0726L17.5242 16.6107C18.9122 14.9103 19.7446 12.7385 19.7446 10.3723C19.7446 4.91999 15.3247 0.5 9.87232 0.5Z" fill="black"/>
</svg>