<svg width="21" height="19" viewBox="0 0 21 19" fill="none" xmlns="http://www.w3.org/2000/svg" aria-hidden="true">
<path d="M10.64 14.6279L10.2524 14.394L9.86488 14.6279L5.20664 17.4394L6.44283 12.1404L6.54567 11.6995L6.20352 11.4031L2.08707 7.83704L7.50584 7.37731L7.95649 7.33908L8.13297 6.92267L10.2524 1.92195L12.3719 6.92267L12.5484 7.33908L12.999 7.37731L18.4178 7.83704L14.3013 11.4031L13.9592 11.6995L14.062 12.1404L15.2982 17.4394L10.64 14.6279Z" stroke="black" stroke-width="1.5"/>
<path d="M7.50584 7.37731L7.95649 7.33908L8.13297 6.92267L9.50243 3.69152V14.8466L5.20664 17.4394L6.44283 12.1404L6.54567 11.6995L6.20352 11.4031L2.08707 7.83704L7.50584 7.37731Z" fill="black" stroke="black" stroke-width="1.5"/>
</svg>
